# xmcd
# Track frame offsets:
# 188
# 13288
# 24613
# 34138
# 45013
# 55513
# 70663
# 81013
# 92488
# 101863
# 112738
# 121813
# 135913
# 146038
# 155863
# 168763
#
# Disc length: 2452 seconds
# Revision: 1
# Processed by: cddbd v1.5PL3 Copyright (c) Steve Scherf et al.
# Submitted via: VisiTrax 2.9.6.190 - For more info visit www.synapsa.com
#
DISCID=c0099210
DTITLE=Jim Reeves - My greatest Songs
DYEAR=1992
DGENRE=
TTITLE0=Four Walls
TTITLE1=Anna Maria
TTITLE2=Billy Bayou
TTITLE3=He'll Have To Go
TTITLE4=Am I Losing You
TTITLE5=The Blizzard
TTITLE6=Losing Your Love
TTITLE7=Adios Amigo
TTITLE8=I'm Gonna Change Everything
TTITLE9=I Guess I'm Crazy
TTITLE10=I Won't Forget You
TTITLE11=This Is It
TTITLE12=Is It Really Over?
TTITLE13=Snowflake
TTITLE14=Distant Drums
TTITLE15=Blue Side Of Lonesome
EXTD=
EXTT0=
EXTT1=
EXTT2=
EXTT3=
EXTT4=
EXTT5=
EXTT6=
EXTT7=
EXTT8=
EXTT9=
EXTT10=
EXTT11=
EXTT12=
EXTT13=
EXTT14=
EXTT15=
PLAYORDER=
